<svg width="138" height="48" viewBox="0 0 138 48" fill="none" xmlns="http://www.w3.org/2000/svg">
<mask id="mask0_2002_750" style="mask-type:alpha" maskUnits="userSpaceOnUse" x="0" y="1" width="18" height="17">
<rect width="17.8212" height="16.0288" transform="matrix(-1 0 0 1 17.8223 1)" fill="#D9D9D9"/>
</mask>
<g mask="url(#mask0_2002_750)">
<path d="M10.7079 15.2253L12.9208 10.357L17.7891 8.14414L12.9208 5.93129L10.7079 1.06302L8.49509 5.93129L3.62681 8.14414L8.49509 10.357L10.7079 15.2253ZM3.62681 16.9956L4.73324 14.5614L7.16738 13.455L4.73324 12.3486L3.62681 9.91443L2.52039 12.3486L0.0862509 13.455L2.52039 14.5614L3.62681 16.9956Z" fill="#D9D9D9"/>
<path d="M10.7079 15.2253L12.9208 10.357L17.7891 8.14414L12.9208 5.93129L10.7079 1.06302L8.49509 5.93129L3.62681 8.14414L8.49509 10.357L10.7079 15.2253ZM3.62681 16.9956L4.73324 14.5614L7.16738 13.455L4.73324 12.3486L3.62681 9.91443L2.52039 12.3486L0.0862509 13.455L2.52039 14.5614L3.62681 16.9956Z" fill="url(#paint0_linear_2002_750)"/>
</g>
<path d="M79.7227 33.2642H73.9912V31.4419C72.7734 32.9972 71.1246 33.7749 69.0459 33.7749C67.8701 33.7749 66.7886 33.5514 65.8018 33.104C64.8151 32.6566 63.9545 32.0387 63.2197 31.2505C62.4849 30.4622 61.9072 29.5354 61.4873 28.4702C61.0884 27.4049 60.8887 26.2538 60.8887 25.0181C60.8887 23.8464 61.0781 22.7387 61.4561 21.6948C61.855 20.6296 62.4111 19.7029 63.125 18.9146C63.8388 18.1263 64.6891 17.5085 65.6758 17.061C66.6836 16.5923 67.7866 16.3579 68.9834 16.3579C70.999 16.358 72.6685 17.0711 73.9912 18.4985V6.73779H79.7227V33.2642ZM70.4951 21.3433C69.9912 21.3433 69.5078 21.4386 69.0459 21.6304C68.605 21.8221 68.2168 22.0893 67.8809 22.4302C67.5661 22.7709 67.3036 23.1647 67.0938 23.6118C66.9048 24.0378 66.8096 24.5069 66.8096 25.0181C66.8096 25.5506 66.9048 26.0514 67.0938 26.52C67.2827 26.9674 67.5347 27.3617 67.8496 27.7026C68.1856 28.0435 68.5737 28.3107 69.0146 28.5024C69.4765 28.6941 69.9703 28.7896 70.4951 28.7896C70.9989 28.7895 71.4713 28.6941 71.9121 28.5024C72.374 28.3107 72.7622 28.0435 73.0771 27.7026C73.4131 27.3617 73.6763 26.9674 73.8652 26.52C74.075 26.0728 74.1797 25.5936 74.1797 25.0825C74.1797 24.5712 74.0752 24.0915 73.8652 23.644C73.6763 23.1753 73.4131 22.7711 73.0771 22.4302C72.7622 22.0893 72.374 21.8221 71.9121 21.6304C71.4713 21.4387 70.9989 21.3433 70.4951 21.3433Z" fill="white"/>
<path d="M79.7227 33.2642H73.9912V31.4419C72.7734 32.9972 71.1246 33.7749 69.0459 33.7749C67.8701 33.7749 66.7886 33.5514 65.8018 33.104C64.8151 32.6566 63.9545 32.0387 63.2197 31.2505C62.4849 30.4622 61.9072 29.5354 61.4873 28.4702C61.0884 27.4049 60.8887 26.2538 60.8887 25.0181C60.8887 23.8464 61.0781 22.7387 61.4561 21.6948C61.855 20.6296 62.4111 19.7029 63.125 18.9146C63.8388 18.1263 64.6891 17.5085 65.6758 17.061C66.6836 16.5923 67.7866 16.3579 68.9834 16.3579C70.999 16.358 72.6685 17.0711 73.9912 18.4985V6.73779H79.7227V33.2642ZM70.4951 21.3433C69.9912 21.3433 69.5078 21.4386 69.0459 21.6304C68.605 21.8221 68.2168 22.0893 67.8809 22.4302C67.5661 22.7709 67.3036 23.1647 67.0938 23.6118C66.9048 24.0378 66.8096 24.5069 66.8096 25.0181C66.8096 25.5506 66.9048 26.0514 67.0938 26.52C67.2827 26.9674 67.5347 27.3617 67.8496 27.7026C68.1856 28.0435 68.5737 28.3107 69.0146 28.5024C69.4765 28.6941 69.9703 28.7896 70.4951 28.7896C70.9989 28.7895 71.4713 28.6941 71.9121 28.5024C72.374 28.3107 72.7622 28.0435 73.0771 27.7026C73.4131 27.3617 73.6763 26.9674 73.8652 26.52C74.075 26.0728 74.1797 25.5936 74.1797 25.0825C74.1797 24.5712 74.0752 24.0915 73.8652 23.644C73.6763 23.1753 73.4131 22.7711 73.0771 22.4302C72.7622 22.0893 72.374 21.8221 71.9121 21.6304C71.4713 21.4387 70.9989 21.3433 70.4951 21.3433Z" stroke="white"/>
<path d="M87.0664 24.9866C87.0664 25.5405 87.1609 26.0519 87.3499 26.5206C87.5599 26.968 87.8223 27.3622 88.1373 27.7031C88.4732 28.044 88.8617 28.3103 89.3026 28.5021C89.7646 28.6938 90.2475 28.7897 90.7514 28.7897C91.2554 28.7897 91.7278 28.6938 92.1687 28.5021C92.6307 28.3103 93.0191 28.044 93.334 27.7031C93.67 27.3622 93.9325 26.968 94.1215 26.5206C94.3314 26.0519 94.4364 25.5512 94.4364 25.0185C94.4364 24.5072 94.3314 24.0278 94.1215 23.5804C93.9325 23.1116 93.67 22.7068 93.334 22.3659C93.0191 22.025 92.6307 21.7587 92.1687 21.5669C91.7278 21.3752 91.2554 21.2793 90.7514 21.2793C90.2475 21.2793 89.7646 21.3752 89.3026 21.5669C88.8617 21.7587 88.4732 22.025 88.1373 22.3659C87.8223 22.7068 87.5599 23.101 87.3499 23.5484C87.1609 23.9958 87.0664 24.4752 87.0664 24.9866ZM81.0508 24.9226C81.0508 23.7082 81.2922 22.579 81.7752 21.535C82.2581 20.4697 82.93 19.5535 83.7909 18.7865C84.6518 17.9982 85.6701 17.3803 86.846 16.9329C88.0428 16.4854 89.3446 16.2617 90.7514 16.2617C92.1372 16.2617 93.418 16.4854 94.5939 16.9329C95.7907 17.359 96.8196 17.9662 97.6804 18.7545C98.5623 19.5216 99.2447 20.4484 99.7277 21.535C100.211 22.6003 100.452 23.7828 100.452 25.0824C100.452 26.3821 100.2 27.5753 99.6962 28.6619C99.2132 29.7272 98.5413 30.654 97.6804 31.4423C96.8196 32.2093 95.7802 32.8059 94.5624 33.232C93.3655 33.6582 92.0637 33.8712 90.6569 33.8712C89.2711 33.8712 87.9903 33.6582 86.8145 33.232C85.6386 32.8059 84.6203 32.1987 83.7594 31.4104C82.9195 30.622 82.2581 29.6846 81.7752 28.598C81.2922 27.49 81.0508 26.2649 81.0508 24.9226Z" fill="white"/>
<path d="M101.779 16.8745H107.48V18.9518C108.257 17.9931 109.044 17.3539 109.842 17.0343C110.64 16.6934 111.574 16.5229 112.645 16.5229C113.779 16.5229 114.745 16.7147 115.543 17.0982C116.362 17.4604 117.055 17.9824 117.622 18.6642C118.083 19.2182 118.398 19.836 118.566 20.5178C118.734 21.1996 118.818 21.9773 118.818 22.8509V33.2695H113.118V24.9921C113.118 24.1825 113.055 23.5327 112.929 23.0426C112.824 22.5313 112.624 22.1265 112.33 21.8282C112.078 21.5725 111.795 21.3914 111.48 21.2849C111.165 21.1783 110.829 21.1251 110.472 21.1251C109.506 21.1251 108.761 21.4234 108.236 22.0199C107.732 22.5952 107.48 23.4261 107.48 24.5127V33.2695H101.779V16.8745Z" fill="white"/>
<path d="M132.589 22.685C132.4 21.8754 132.012 21.2256 131.424 20.7355C130.836 20.2455 130.122 20.0005 129.282 20.0005C128.4 20.0005 127.676 20.2348 127.109 20.7036C126.563 21.1723 126.217 21.8328 126.07 22.685H132.589ZM125.912 26.0407C125.912 28.5335 127.067 29.78 129.377 29.78C130.615 29.78 131.55 29.2686 132.18 28.2459H137.692C136.579 31.9958 133.797 33.8707 129.345 33.8707C127.98 33.8707 126.731 33.6683 125.597 33.2635C124.463 32.8374 123.487 32.2408 122.668 31.4738C121.87 30.7068 121.251 29.7906 120.81 28.7253C120.369 27.66 120.148 26.4669 120.148 25.1459C120.148 23.7823 120.358 22.5572 120.778 21.4706C121.198 20.3627 121.797 19.4252 122.574 18.6582C123.35 17.8911 124.285 17.3052 125.377 16.9004C126.49 16.4743 127.739 16.2612 129.125 16.2612C130.489 16.2612 131.718 16.4743 132.81 16.9004C133.902 17.3052 134.825 17.9018 135.581 18.6901C136.337 19.4785 136.915 20.4479 137.314 21.5984C137.712 22.7276 137.912 24.006 137.912 25.4335V26.0407H125.912Z" fill="white"/>
<path d="M21.4316 26.0996C21.4317 28.1236 22.3974 29.1357 24.3291 29.1357C26.2606 29.1356 27.2265 28.1235 27.2266 26.0996V16.8633H32.9268V27.2178C32.9268 29.4336 32.2027 31.0962 30.7539 32.2041C29.3262 33.3119 27.1844 33.8652 24.3291 33.8652C21.4736 33.8652 19.3209 33.3119 17.8721 32.2041C16.4443 31.0962 15.7305 29.4336 15.7305 27.2178V16.8633H21.4316V26.0996Z" fill="white"/>
<path d="M21.4316 26.0996C21.4317 28.1236 22.3974 29.1357 24.3291 29.1357C26.2606 29.1356 27.2265 28.1235 27.2266 26.0996V16.8633H32.9268V27.2178C32.9268 29.4336 32.2027 31.0962 30.7539 32.2041C29.3262 33.3119 27.1844 33.8652 24.3291 33.8652C21.4736 33.8652 19.3209 33.3119 17.8721 32.2041C16.4443 31.0962 15.7305 29.4336 15.7305 27.2178V16.8633H21.4316V26.0996Z" stroke="white"/>
<path d="M57.3008 16.8745H61.9922L59.54 21.6997H57.3008V33.269H51.5996V21.6997H47.0938L49.5479 16.8745H51.5996V11.9526H57.3008V16.8745Z" fill="white"/>
<path d="M42.218 16.2642C43.8329 16.2642 45.4039 16.5547 46.9329 17.1304L45.0325 20.8687C44.1414 20.4647 43.267 20.2593 42.4065 20.2593C41.8817 20.2593 41.4514 20.3656 41.1155 20.5786C40.8005 20.7917 40.6428 21.0797 40.6428 21.4419C40.6428 21.6335 40.6643 21.7936 40.7063 21.9214C40.7693 22.0278 40.8852 22.1343 41.053 22.2407C41.2419 22.3472 41.5044 22.4427 41.8401 22.5278C42.197 22.6131 42.659 22.7203 43.2258 22.8481C44.8005 23.1677 45.9763 23.7428 46.7532 24.5737C47.53 25.3834 47.9182 26.4272 47.9182 27.7056C47.9182 28.6643 47.7297 29.5274 47.3518 30.2944C46.9739 31.0614 46.4485 31.711 45.7766 32.2437C45.1047 32.7549 44.2966 33.1493 43.3518 33.4263C42.4069 33.7246 41.3675 33.8735 40.2336 33.8735C37.8535 33.8735 35.4617 33.045 33.4915 31.8354L35.5862 27.7124C36.9221 28.645 38.544 29.559 40.3909 29.5591C40.9158 29.5591 41.3469 29.4419 41.6829 29.2075C42.0185 28.9732 42.1867 28.675 42.1868 28.313C42.1868 28.0999 42.155 27.9291 42.092 27.8013C42.05 27.6522 41.9446 27.524 41.7766 27.4175C41.6086 27.2898 41.3564 27.1833 41.0208 27.0981C40.7058 26.9916 40.2858 26.8853 39.761 26.7788C37.9977 26.4167 36.7591 25.884 36.0452 25.1812C35.3523 24.4567 35.0051 23.4656 35.0051 22.2085C35.0051 21.2924 35.1731 20.4719 35.509 19.7476C35.845 19.0019 36.3283 18.3732 36.9583 17.8618C37.5881 17.3506 38.3441 16.9561 39.2258 16.6792C40.1287 16.4023 41.1262 16.2642 42.218 16.2642Z" fill="white"/>
<path d="M13.5571 33.6797C13.5571 34.3187 13.5184 34.91 13.4409 35.4521C13.3828 35.9943 13.2765 36.4594 13.1216 36.8467C12.8699 37.4661 12.5209 38.0369 12.0757 38.5596C11.6497 39.063 11.1459 39.4993 10.5649 39.8672C9.98419 40.2156 9.33583 40.4871 8.61963 40.6807C7.92252 40.8937 7.18618 41 6.41162 41C4.79928 41 3.39356 40.4905 2.19385 39.4727L4.59717 34.7422C4.70938 35.0519 4.85835 35.3178 5.04639 35.5391C5.37551 35.9263 5.78215 36.12 6.26611 36.1201C7.33114 36.1201 7.86377 35.2774 7.86377 33.5928V16.8633H13.5571V33.6797Z" fill="white"/>
<defs>
<linearGradient id="paint0_linear_2002_750" x1="17.7891" y1="1.06302" x2="0.0862503" y2="16.9956" gradientUnits="userSpaceOnUse">
<stop stop-color="#00B39B"/>
<stop offset="1" stop-color="#3B71F7"/>
</linearGradient>
</defs>
</svg>
